<svg viewBox="0 0 16 16" fill="none" xmlns="http://www.w3.org/2000/svg">
<path d="M8.36913 5.5095C8.24848 5.50325 8.12543 5.5 8 5.5C6.38285 5.5 5.16297 6.04043 4.34765 6.58397C3.94096 6.8551 3.63452 7.12713 3.4277 7.33395C3.32416 7.43748 3.24518 7.52509 3.19068 7.58867C3.16342 7.62047 3.14224 7.64632 3.12714 7.66519L3.10903 7.68818L3.10338 7.69553L3.10141 7.69813L3.10063 7.69916C3.10063 7.69916 3.1 7.7 3.49978 7.99984L3.1 7.7L2.875 8L3.1 8.3L3.10063 8.30084L3.10141 8.30187L3.10338 8.30447L3.10903 8.31182L3.12714 8.33481C3.14224 8.35368 3.16342 8.37953 3.19068 8.41133C3.24518 8.47491 3.32416 8.56252 3.4277 8.66605C3.63452 8.87287 3.94096 9.1449 4.34765 9.41603C4.37045 9.43123 4.39358 9.44643 4.41701 9.46162L5.14316 8.73547C5.05862 8.68536 4.97836 8.63465 4.90235 8.58397C4.58623 8.37323 4.34409 8.16324 4.17641 8C4.34409 7.83676 4.58623 7.62677 4.90235 7.41603C5.47384 7.03503 6.28599 6.65187 7.34304 6.53559L8.36913 5.5095Z" fill="black"/>
<path fill-rule="evenodd" clip-rule="evenodd" d="M8.65685 9.46442L7.63078 10.4905C7.75146 10.4967 7.87453 10.5 8 10.5C9.61715 10.5 10.837 9.95957 11.6524 9.41603C12.059 9.1449 12.3655 8.87287 12.5723 8.66605C12.6758 8.56252 12.7548 8.47491 12.8093 8.41133C12.8366 8.37953 12.8578 8.35368 12.8729 8.33481L12.891 8.31182L12.8966 8.30447L12.8986 8.30187L12.8994 8.30084C12.8994 8.30084 12.9 8.3 12.5 8L12.9 8.3L13.125 8L12.8997 7.6996L12.8986 7.69813L12.8966 7.69553L12.891 7.68818L12.8729 7.66519C12.8578 7.64632 12.8366 7.62047 12.8093 7.58867C12.7548 7.52509 12.6758 7.43748 12.5723 7.33395C12.3655 7.12713 12.059 6.8551 11.6524 6.58397C11.6295 6.56876 11.6064 6.55354 11.5829 6.53834L10.8568 7.26449C10.9413 7.31462 11.0216 7.36534 11.0977 7.41603C11.4138 7.62677 11.6559 7.83676 11.8236 8C11.6559 8.16324 11.4138 8.37323 11.0977 8.58397C10.5261 8.96498 9.71395 9.34816 8.65685 9.46442ZM12.5 8C12.9 7.7 12.8997 7.6996 12.8997 7.6996L12.5 8Z" fill="black"/>
<path fill-rule="evenodd" clip-rule="evenodd" d="M4.64648 10.6465L10.6465 4.64645L11.3536 5.35356L8.35771 8.34935L5.35359 11.3536L4.64648 10.6465Z" fill="black"/>
</svg>
